<?xml version="1.0" encoding="UTF-8" standalone="no"?>
<!-- Created with Inkscape (http://www.inkscape.org/) -->

<svg
   xmlns:dc="http://purl.org/dc/elements/1.1/"
   xmlns:cc="http://creativecommons.org/ns#"
   xmlns:rdf="http://www.w3.org/1999/02/22-rdf-syntax-ns#"
   xmlns:svg="http://www.w3.org/2000/svg"
   xmlns="http://www.w3.org/2000/svg"
   xmlns:sodipodi="http://sodipodi.sourceforge.net/DTD/sodipodi-0.dtd"
   xmlns:inkscape="http://www.inkscape.org/namespaces/inkscape"
   width="170mm"
   height="170mm"
   viewBox="0 0 170 170"
   version="1.1"
   id="svg8"
   inkscape:version="0.92.2 (5c3e80d, 2017-08-06)"
   sodipodi:docname="eno_logo.svg">
  <defs
     id="defs2" />
  <sodipodi:namedview
     id="base"
     pagecolor="#ffffff"
     bordercolor="#666666"
     borderopacity="1.0"
     inkscape:pageopacity="0.0"
     inkscape:pageshadow="2"
     inkscape:zoom="0.7"
     inkscape:cx="599.49803"
     inkscape:cy="186.35696"
     inkscape:document-units="mm"
     inkscape:current-layer="layer1"
     showgrid="true"
     showguides="false"
     inkscape:window-width="1600"
     inkscape:window-height="1201"
     inkscape:window-x="-9"
     inkscape:window-y="-9"
     inkscape:window-maximized="1"
     objecttolerance="20"
     gridtolerance="10000"
     inkscape:lockguides="false"
     fit-margin-top="0"
     fit-margin-left="0"
     fit-margin-right="0"
     fit-margin-bottom="0">
    <inkscape:grid
       type="xygrid"
       id="grid4485"
       units="mm"
       spacingx="1"
       spacingy="1"
       enabled="true"
       originx="-5.9998319"
       originy="-65.837994" />
  </sodipodi:namedview>
  <metadata
     id="metadata5">
    <rdf:RDF>
      <cc:Work
         rdf:about="">
        <dc:format>image/svg+xml</dc:format>
        <dc:type
           rdf:resource="http://purl.org/dc/dcmitype/StillImage" />
        <dc:title></dc:title>
      </cc:Work>
    </rdf:RDF>
  </metadata>
  <g
     inkscape:label="レイヤー 1"
     inkscape:groupmode="layer"
     id="layer1"
     transform="translate(-5.9998322,-61.162003)">
    <g
       id="g4517"
       inkscape:export-xdpi="96"
       inkscape:export-ydpi="96">
      <circle
         r="85"
         cy="146.162"
         cx="90.999832"
         id="path4511-1"
         style="fill:#ffffff;fill-opacity:1;stroke:none;stroke-width:9.99999905;stroke-miterlimit:4;stroke-dasharray:none;stroke-opacity:1" />
      <g
         transform="translate(-1.65e-4,-5.00024)"
         id="g4505">
        <path
           style="fill:#000000;fill-opacity:1;fill-rule:evenodd;stroke:none;stroke-width:0.26458332px;stroke-linecap:butt;stroke-linejoin:miter;stroke-opacity:1"
           d="m 88,110 c -7.36559,-2.56942 -12.611086,-13.093952 -7.73689,-20.448725 4.187945,-6.319276 14.677996,-5.08268 20.86994,0.594801 5.06498,4.64415 6.12387,12.899774 1.34323,17.836134 C 99.28067,111.28191 93.625738,111.96249 88,110 Z"
           id="path4487"
           inkscape:connector-curvature="0"
           sodipodi:nodetypes="sssss" />
        <path
           style="fill:#000000;fill-opacity:1;fill-rule:evenodd;stroke:none;stroke-width:0.26458332px;stroke-linecap:butt;stroke-linejoin:miter;stroke-opacity:1"
           d="m 70,104 c 6,5 10.55812,10.80413 23.649341,12.0769 C 100.15077,116.70899 105.48045,112.73362 114,106 l 7,13 c -13.47102,5.87466 -17.74688,7.26529 -23,15 8.32517,9.12997 14.47252,4.21626 24,-4 l 9,17 c -17.28838,8.71289 -27.23254,5.01448 -40,-3 -4.62435,3.75202 -23.372889,13.59992 -40,4 l 8,-17 c 13.701585,5.22484 17.893474,9.80815 30,-5 -8.568215,1.01924 -17.998616,-1.18038 -26,-8 z"
           id="path4489"
           inkscape:connector-curvature="0"
           sodipodi:nodetypes="csccccccccccc" />
        <path
           style="fill:#000000;fill-opacity:1;stroke:none;stroke-width:0.26458332"
           d="m 60.000165,152.00014 v 55.0001 H 102 V 167 h 6 v 40.00024 L 125,207 V 151.99991 Z M 77,166.99974 h 5.999979 l 2.1e-5,25.0004 -6,-2e-5 z"
           id="rect4491"
           inkscape:connector-curvature="0"
           sodipodi:nodetypes="cccccccccccccc" />
      </g>
      <circle
         r="75"
         cy="146.162"
         cx="90.999832"
         id="path4511"
         style="fill:none;fill-opacity:1;stroke:#000000;stroke-width:10;stroke-miterlimit:4;stroke-dasharray:none;stroke-opacity:1" />
    </g>
  </g>
</svg>
